<svg width="14" height="14" viewBox="0 0 14 14" fill="none" xmlns="http://www.w3.org/2000/svg">
<path fill-rule="evenodd" clip-rule="evenodd" d="M7 13.2C3.5816 13.2 0.8 10.4184 0.8 7C0.8 3.5816 3.5816 0.8 7 0.8C10.4184 0.8 13.2 3.5816 13.2 7C13.2 10.4184 10.4184 13.2 7 13.2M7 0C3.14 0 0 3.14 0 7C0 10.86 3.14 14 7 14C10.86 14 14 10.86 14 7C14 3.14 10.86 0 7 0" fill="#B0BDC5"/>
<path fill-rule="evenodd" clip-rule="evenodd" d="M8.77443 3.78757C8.26803 3.42197 7.63283 3.23877 6.86723 3.23877C6.28483 3.23877 5.79443 3.36757 5.39443 3.62517C4.76163 4.02757 4.42483 4.71077 4.38403 5.67637H5.85203C5.85203 5.39557 5.93363 5.12437 6.09763 4.86437C6.26083 4.60357 6.53923 4.47237 6.93043 4.47237C7.32963 4.47237 7.60403 4.57797 7.75443 4.78997C7.90483 5.00197 7.97923 5.23637 7.97923 5.49397C7.97923 5.71717 7.91203 5.92197 7.77683 6.10757C7.70243 6.21637 7.60483 6.31557 7.48323 6.40757L7.11363 6.69717C6.74883 6.98117 6.52323 7.23317 6.43523 7.45077C6.34723 7.66997 6.29363 8.06517 6.27363 8.63717H7.64963C7.65283 8.36597 7.67443 8.16677 7.71523 8.03717C7.77923 7.83477 7.90883 7.65637 8.10563 7.50437L8.46483 7.22517C8.82963 6.94037 9.07603 6.70677 9.20403 6.52437C9.42403 6.22277 9.53363 5.85237 9.53363 5.41237C9.53363 4.69477 9.28003 4.15317 8.77443 3.78757" fill="#B0BDC5"/>
<path fill-rule="evenodd" clip-rule="evenodd" d="M6.23999 10.8H7.75839V9.33276H6.23999V10.8Z" fill="#B0BDC5"/>
</svg>
